<svg xmlns="http://www.w3.org/2000/svg" width="600" height="400" viewBox="0 0 600 400" role="img" aria-label="Space Invaders illustration">
<defs>
<radialGradient id="a" cx="55%" cy="30%" r="72%"><stop stop-color="#7adf45" stop-opacity=".3"/><stop offset="1" stop-color="#080d19" stop-opacity="0"/></radialGradient>
<linearGradient id="shade" x1="0" x2="0" y1="0" y2="1"><stop offset=".53" stop-color="#070a12" stop-opacity="0"/><stop offset="1" stop-color="#070a12" stop-opacity=".94"/></linearGradient>
<linearGradient id="shine" x1="0" x2="1" y1="0" y2="1"><stop stop-color="#fff" stop-opacity=".18"/><stop offset="1" stop-color="#fff" stop-opacity="0"/></linearGradient>
<filter id="glow" x="-100%" y="-100%" width="300%" height="300%"><feGaussianBlur stdDeviation="8"/></filter>
</defs>
<rect width="600" height="400" fill="#0b1020"/><rect width="600" height="400" fill="url(#a)"/>
<circle cx="22" cy="24" r="2" fill="#d9eaff" opacity="0.14"/><circle cx="135" cy="95" r="1" fill="#d9eaff" opacity="0.22000000000000003"/><circle cx="248" cy="166" r="1" fill="#d9eaff" opacity="0.30000000000000004"/><circle cx="361" cy="237" r="1" fill="#d9eaff" opacity="0.38"/><circle cx="474" cy="58" r="1" fill="#d9eaff" opacity="0.14"/><circle cx="32" cy="129" r="1" fill="#d9eaff" opacity="0.22000000000000003"/><circle cx="145" cy="200" r="2" fill="#d9eaff" opacity="0.30000000000000004"/><circle cx="258" cy="271" r="1" fill="#d9eaff" opacity="0.38"/><circle cx="371" cy="92" r="1" fill="#d9eaff" opacity="0.14"/><circle cx="484" cy="163" r="1" fill="#d9eaff" opacity="0.22000000000000003"/><circle cx="42" cy="234" r="1" fill="#d9eaff" opacity="0.30000000000000004"/><circle cx="155" cy="55" r="1" fill="#d9eaff" opacity="0.38"/><circle cx="268" cy="126" r="2" fill="#d9eaff" opacity="0.14"/><circle cx="381" cy="197" r="1" fill="#d9eaff" opacity="0.22000000000000003"/><circle cx="494" cy="268" r="1" fill="#d9eaff" opacity="0.30000000000000004"/><circle cx="52" cy="89" r="1" fill="#d9eaff" opacity="0.38"/><circle cx="165" cy="160" r="1" fill="#d9eaff" opacity="0.14"/><circle cx="278" cy="231" r="1" fill="#d9eaff" opacity="0.22000000000000003"/><circle cx="391" cy="52" r="2" fill="#d9eaff" opacity="0.30000000000000004"/><circle cx="504" cy="123" r="1" fill="#d9eaff" opacity="0.38"/><circle cx="62" cy="194" r="1" fill="#d9eaff" opacity="0.14"/><circle cx="175" cy="265" r="1" fill="#d9eaff" opacity="0.22000000000000003"/><circle cx="288" cy="86" r="1" fill="#d9eaff" opacity="0.30000000000000004"/><circle cx="401" cy="157" r="1" fill="#d9eaff" opacity="0.38"/><circle cx="514" cy="228" r="2" fill="#d9eaff" opacity="0.14"/><circle cx="72" cy="49" r="1" fill="#d9eaff" opacity="0.22000000000000003"/><circle cx="185" cy="120" r="1" fill="#d9eaff" opacity="0.30000000000000004"/><circle cx="298" cy="191" r="1" fill="#d9eaff" opacity="0.38"/><circle cx="411" cy="262" r="1" fill="#d9eaff" opacity="0.14"/><circle cx="524" cy="83" r="1" fill="#d9eaff" opacity="0.22000000000000003"/><g transform="translate(110 48)"><rect x="10" y="0" width="5" height="5" fill="#b7f858" /><rect x="30" y="0" width="5" height="5" fill="#b7f858" /><rect x="15" y="5" width="5" height="5" fill="#b7f858" /><rect x="25" y="5" width="5" height="5" fill="#b7f858" /><rect x="10" y="10" width="5" height="5" fill="#b7f858" /><rect x="15" y="10" width="5" height="5" fill="#b7f858" /><rect x="20" y="10" width="5" height="5" fill="#b7f858" /><rect x="25" y="10" width="5" height="5" fill="#b7f858" /><rect x="30" y="10" width="5" height="5" fill="#b7f858" /><rect x="5" y="15" width="5" height="5" fill="#b7f858" /><rect x="10" y="15" width="5" height="5" fill="#b7f858" /><rect x="20" y="15" width="5" height="5" fill="#b7f858" /><rect x="30" y="15" width="5" height="5" fill="#b7f858" /><rect x="35" y="15" width="5" height="5" fill="#b7f858" /><rect x="0" y="20" width="5" height="5" fill="#b7f858" /><rect x="5" y="20" width="5" height="5" fill="#b7f858" /><rect x="10" y="20" width="5" height="5" fill="#b7f858" /><rect x="15" y="20" width="5" height="5" fill="#b7f858" /><rect x="20" y="20" width="5" height="5" fill="#b7f858" /><rect x="25" y="20" width="5" height="5" fill="#b7f858" /><rect x="30" y="20" width="5" height="5" fill="#b7f858" /><rect x="35" y="20" width="5" height="5" fill="#b7f858" /><rect x="40" y="20" width="5" height="5" fill="#b7f858" /><rect x="0" y="25" width="5" height="5" fill="#b7f858" /><rect x="10" y="25" width="5" height="5" fill="#b7f858" /><rect x="15" y="25" width="5" height="5" fill="#b7f858" /><rect x="20" y="25" width="5" height="5" fill="#b7f858" /><rect x="25" y="25" width="5" height="5" fill="#b7f858" /><rect x="30" y="25" width="5" height="5" fill="#b7f858" /><rect x="40" y="25" width="5" height="5" fill="#b7f858" /><rect x="0" y="30" width="5" height="5" fill="#b7f858" /><rect x="10" y="30" width="5" height="5" fill="#b7f858" /><rect x="30" y="30" width="5" height="5" fill="#b7f858" /><rect x="40" y="30" width="5" height="5" fill="#b7f858" /><rect x="15" y="35" width="5" height="5" fill="#b7f858" /><rect x="25" y="35" width="5" height="5" fill="#b7f858" /></g><g transform="translate(186 48)"><rect x="10" y="0" width="5" height="5" fill="#b7f858" /><rect x="30" y="0" width="5" height="5" fill="#b7f858" /><rect x="15" y="5" width="5" height="5" fill="#b7f858" /><rect x="25" y="5" width="5" height="5" fill="#b7f858" /><rect x="10" y="10" width="5" height="5" fill="#b7f858" /><rect x="15" y="10" width="5" height="5" fill="#b7f858" /><rect x="20" y="10" width="5" height="5" fill="#b7f858" /><rect x="25" y="10" width="5" height="5" fill="#b7f858" /><rect x="30" y="10" width="5" height="5" fill="#b7f858" /><rect x="5" y="15" width="5" height="5" fill="#b7f858" /><rect x="10" y="15" width="5" height="5" fill="#b7f858" /><rect x="20" y="15" width="5" height="5" fill="#b7f858" /><rect x="30" y="15" width="5" height="5" fill="#b7f858" /><rect x="35" y="15" width="5" height="5" fill="#b7f858" /><rect x="0" y="20" width="5" height="5" fill="#b7f858" /><rect x="5" y="20" width="5" height="5" fill="#b7f858" /><rect x="10" y="20" width="5" height="5" fill="#b7f858" /><rect x="15" y="20" width="5" height="5" fill="#b7f858" /><rect x="20" y="20" width="5" height="5" fill="#b7f858" /><rect x="25" y="20" width="5" height="5" fill="#b7f858" /><rect x="30" y="20" width="5" height="5" fill="#b7f858" /><rect x="35" y="20" width="5" height="5" fill="#b7f858" /><rect x="40" y="20" width="5" height="5" fill="#b7f858" /><rect x="0" y="25" width="5" height="5" fill="#b7f858" /><rect x="10" y="25" width="5" height="5" fill="#b7f858" /><rect x="15" y="25" width="5" height="5" fill="#b7f858" /><rect x="20" y="25" width="5" height="5" fill="#b7f858" /><rect x="25" y="25" width="5" height="5" fill="#b7f858" /><rect x="30" y="25" width="5" height="5" fill="#b7f858" /><rect x="40" y="25" width="5" height="5" fill="#b7f858" /><rect x="0" y="30" width="5" height="5" fill="#b7f858" /><rect x="10" y="30" width="5" height="5" fill="#b7f858" /><rect x="30" y="30" width="5" height="5" fill="#b7f858" /><rect x="40" y="30" width="5" height="5" fill="#b7f858" /><rect x="15" y="35" width="5" height="5" fill="#b7f858" /><rect x="25" y="35" width="5" height="5" fill="#b7f858" /></g><g transform="translate(262 48)"><rect x="10" y="0" width="5" height="5" fill="#b7f858" /><rect x="30" y="0" width="5" height="5" fill="#b7f858" /><rect x="15" y="5" width="5" height="5" fill="#b7f858" /><rect x="25" y="5" width="5" height="5" fill="#b7f858" /><rect x="10" y="10" width="5" height="5" fill="#b7f858" /><rect x="15" y="10" width="5" height="5" fill="#b7f858" /><rect x="20" y="10" width="5" height="5" fill="#b7f858" /><rect x="25" y="10" width="5" height="5" fill="#b7f858" /><rect x="30" y="10" width="5" height="5" fill="#b7f858" /><rect x="5" y="15" width="5" height="5" fill="#b7f858" /><rect x="10" y="15" width="5" height="5" fill="#b7f858" /><rect x="20" y="15" width="5" height="5" fill="#b7f858" /><rect x="30" y="15" width="5" height="5" fill="#b7f858" /><rect x="35" y="15" width="5" height="5" fill="#b7f858" /><rect x="0" y="20" width="5" height="5" fill="#b7f858" /><rect x="5" y="20" width="5" height="5" fill="#b7f858" /><rect x="10" y="20" width="5" height="5" fill="#b7f858" /><rect x="15" y="20" width="5" height="5" fill="#b7f858" /><rect x="20" y="20" width="5" height="5" fill="#b7f858" /><rect x="25" y="20" width="5" height="5" fill="#b7f858" /><rect x="30" y="20" width="5" height="5" fill="#b7f858" /><rect x="35" y="20" width="5" height="5" fill="#b7f858" /><rect x="40" y="20" width="5" height="5" fill="#b7f858" /><rect x="0" y="25" width="5" height="5" fill="#b7f858" /><rect x="10" y="25" width="5" height="5" fill="#b7f858" /><rect x="15" y="25" width="5" height="5" fill="#b7f858" /><rect x="20" y="25" width="5" height="5" fill="#b7f858" /><rect x="25" y="25" width="5" height="5" fill="#b7f858" /><rect x="30" y="25" width="5" height="5" fill="#b7f858" /><rect x="40" y="25" width="5" height="5" fill="#b7f858" /><rect x="0" y="30" width="5" height="5" fill="#b7f858" /><rect x="10" y="30" width="5" height="5" fill="#b7f858" /><rect x="30" y="30" width="5" height="5" fill="#b7f858" /><rect x="40" y="30" width="5" height="5" fill="#b7f858" /><rect x="15" y="35" width="5" height="5" fill="#b7f858" /><rect x="25" y="35" width="5" height="5" fill="#b7f858" /></g><g transform="translate(338 48)"><rect x="10" y="0" width="5" height="5" fill="#b7f858" /><rect x="30" y="0" width="5" height="5" fill="#b7f858" /><rect x="15" y="5" width="5" height="5" fill="#b7f858" /><rect x="25" y="5" width="5" height="5" fill="#b7f858" /><rect x="10" y="10" width="5" height="5" fill="#b7f858" /><rect x="15" y="10" width="5" height="5" fill="#b7f858" /><rect x="20" y="10" width="5" height="5" fill="#b7f858" /><rect x="25" y="10" width="5" height="5" fill="#b7f858" /><rect x="30" y="10" width="5" height="5" fill="#b7f858" /><rect x="5" y="15" width="5" height="5" fill="#b7f858" /><rect x="10" y="15" width="5" height="5" fill="#b7f858" /><rect x="20" y="15" width="5" height="5" fill="#b7f858" /><rect x="30" y="15" width="5" height="5" fill="#b7f858" /><rect x="35" y="15" width="5" height="5" fill="#b7f858" /><rect x="0" y="20" width="5" height="5" fill="#b7f858" /><rect x="5" y="20" width="5" height="5" fill="#b7f858" /><rect x="10" y="20" width="5" height="5" fill="#b7f858" /><rect x="15" y="20" width="5" height="5" fill="#b7f858" /><rect x="20" y="20" width="5" height="5" fill="#b7f858" /><rect x="25" y="20" width="5" height="5" fill="#b7f858" /><rect x="30" y="20" width="5" height="5" fill="#b7f858" /><rect x="35" y="20" width="5" height="5" fill="#b7f858" /><rect x="40" y="20" width="5" height="5" fill="#b7f858" /><rect x="0" y="25" width="5" height="5" fill="#b7f858" /><rect x="10" y="25" width="5" height="5" fill="#b7f858" /><rect x="15" y="25" width="5" height="5" fill="#b7f858" /><rect x="20" y="25" width="5" height="5" fill="#b7f858" /><rect x="25" y="25" width="5" height="5" fill="#b7f858" /><rect x="30" y="25" width="5" height="5" fill="#b7f858" /><rect x="40" y="25" width="5" height="5" fill="#b7f858" /><rect x="0" y="30" width="5" height="5" fill="#b7f858" /><rect x="10" y="30" width="5" height="5" fill="#b7f858" /><rect x="30" y="30" width="5" height="5" fill="#b7f858" /><rect x="40" y="30" width="5" height="5" fill="#b7f858" /><rect x="15" y="35" width="5" height="5" fill="#b7f858" /><rect x="25" y="35" width="5" height="5" fill="#b7f858" /></g><g transform="translate(414 48)"><rect x="10" y="0" width="5" height="5" fill="#b7f858" /><rect x="30" y="0" width="5" height="5" fill="#b7f858" /><rect x="15" y="5" width="5" height="5" fill="#b7f858" /><rect x="25" y="5" width="5" height="5" fill="#b7f858" /><rect x="10" y="10" width="5" height="5" fill="#b7f858" /><rect x="15" y="10" width="5" height="5" fill="#b7f858" /><rect x="20" y="10" width="5" height="5" fill="#b7f858" /><rect x="25" y="10" width="5" height="5" fill="#b7f858" /><rect x="30" y="10" width="5" height="5" fill="#b7f858" /><rect x="5" y="15" width="5" height="5" fill="#b7f858" /><rect x="10" y="15" width="5" height="5" fill="#b7f858" /><rect x="20" y="15" width="5" height="5" fill="#b7f858" /><rect x="30" y="15" width="5" height="5" fill="#b7f858" /><rect x="35" y="15" width="5" height="5" fill="#b7f858" /><rect x="0" y="20" width="5" height="5" fill="#b7f858" /><rect x="5" y="20" width="5" height="5" fill="#b7f858" /><rect x="10" y="20" width="5" height="5" fill="#b7f858" /><rect x="15" y="20" width="5" height="5" fill="#b7f858" /><rect x="20" y="20" width="5" height="5" fill="#b7f858" /><rect x="25" y="20" width="5" height="5" fill="#b7f858" /><rect x="30" y="20" width="5" height="5" fill="#b7f858" /><rect x="35" y="20" width="5" height="5" fill="#b7f858" /><rect x="40" y="20" width="5" height="5" fill="#b7f858" /><rect x="0" y="25" width="5" height="5" fill="#b7f858" /><rect x="10" y="25" width="5" height="5" fill="#b7f858" /><rect x="15" y="25" width="5" height="5" fill="#b7f858" /><rect x="20" y="25" width="5" height="5" fill="#b7f858" /><rect x="25" y="25" width="5" height="5" fill="#b7f858" /><rect x="30" y="25" width="5" height="5" fill="#b7f858" /><rect x="40" y="25" width="5" height="5" fill="#b7f858" /><rect x="0" y="30" width="5" height="5" fill="#b7f858" /><rect x="10" y="30" width="5" height="5" fill="#b7f858" /><rect x="30" y="30" width="5" height="5" fill="#b7f858" /><rect x="40" y="30" width="5" height="5" fill="#b7f858" /><rect x="15" y="35" width="5" height="5" fill="#b7f858" /><rect x="25" y="35" width="5" height="5" fill="#b7f858" /></g><g transform="translate(110 105)"><rect x="10" y="0" width="5" height="5" fill="#79d986" /><rect x="30" y="0" width="5" height="5" fill="#79d986" /><rect x="15" y="5" width="5" height="5" fill="#79d986" /><rect x="25" y="5" width="5" height="5" fill="#79d986" /><rect x="10" y="10" width="5" height="5" fill="#79d986" /><rect x="15" y="10" width="5" height="5" fill="#79d986" /><rect x="20" y="10" width="5" height="5" fill="#79d986" /><rect x="25" y="10" width="5" height="5" fill="#79d986" /><rect x="30" y="10" width="5" height="5" fill="#79d986" /><rect x="5" y="15" width="5" height="5" fill="#79d986" /><rect x="10" y="15" width="5" height="5" fill="#79d986" /><rect x="20" y="15" width="5" height="5" fill="#79d986" /><rect x="30" y="15" width="5" height="5" fill="#79d986" /><rect x="35" y="15" width="5" height="5" fill="#79d986" /><rect x="0" y="20" width="5" height="5" fill="#79d986" /><rect x="5" y="20" width="5" height="5" fill="#79d986" /><rect x="10" y="20" width="5" height="5" fill="#79d986" /><rect x="15" y="20" width="5" height="5" fill="#79d986" /><rect x="20" y="20" width="5" height="5" fill="#79d986" /><rect x="25" y="20" width="5" height="5" fill="#79d986" /><rect x="30" y="20" width="5" height="5" fill="#79d986" /><rect x="35" y="20" width="5" height="5" fill="#79d986" /><rect x="40" y="20" width="5" height="5" fill="#79d986" /><rect x="0" y="25" width="5" height="5" fill="#79d986" /><rect x="10" y="25" width="5" height="5" fill="#79d986" /><rect x="15" y="25" width="5" height="5" fill="#79d986" /><rect x="20" y="25" width="5" height="5" fill="#79d986" /><rect x="25" y="25" width="5" height="5" fill="#79d986" /><rect x="30" y="25" width="5" height="5" fill="#79d986" /><rect x="40" y="25" width="5" height="5" fill="#79d986" /><rect x="0" y="30" width="5" height="5" fill="#79d986" /><rect x="10" y="30" width="5" height="5" fill="#79d986" /><rect x="30" y="30" width="5" height="5" fill="#79d986" /><rect x="40" y="30" width="5" height="5" fill="#79d986" /><rect x="15" y="35" width="5" height="5" fill="#79d986" /><rect x="25" y="35" width="5" height="5" fill="#79d986" /></g><g transform="translate(186 105)"><rect x="10" y="0" width="5" height="5" fill="#79d986" /><rect x="30" y="0" width="5" height="5" fill="#79d986" /><rect x="15" y="5" width="5" height="5" fill="#79d986" /><rect x="25" y="5" width="5" height="5" fill="#79d986" /><rect x="10" y="10" width="5" height="5" fill="#79d986" /><rect x="15" y="10" width="5" height="5" fill="#79d986" /><rect x="20" y="10" width="5" height="5" fill="#79d986" /><rect x="25" y="10" width="5" height="5" fill="#79d986" /><rect x="30" y="10" width="5" height="5" fill="#79d986" /><rect x="5" y="15" width="5" height="5" fill="#79d986" /><rect x="10" y="15" width="5" height="5" fill="#79d986" /><rect x="20" y="15" width="5" height="5" fill="#79d986" /><rect x="30" y="15" width="5" height="5" fill="#79d986" /><rect x="35" y="15" width="5" height="5" fill="#79d986" /><rect x="0" y="20" width="5" height="5" fill="#79d986" /><rect x="5" y="20" width="5" height="5" fill="#79d986" /><rect x="10" y="20" width="5" height="5" fill="#79d986" /><rect x="15" y="20" width="5" height="5" fill="#79d986" /><rect x="20" y="20" width="5" height="5" fill="#79d986" /><rect x="25" y="20" width="5" height="5" fill="#79d986" /><rect x="30" y="20" width="5" height="5" fill="#79d986" /><rect x="35" y="20" width="5" height="5" fill="#79d986" /><rect x="40" y="20" width="5" height="5" fill="#79d986" /><rect x="0" y="25" width="5" height="5" fill="#79d986" /><rect x="10" y="25" width="5" height="5" fill="#79d986" /><rect x="15" y="25" width="5" height="5" fill="#79d986" /><rect x="20" y="25" width="5" height="5" fill="#79d986" /><rect x="25" y="25" width="5" height="5" fill="#79d986" /><rect x="30" y="25" width="5" height="5" fill="#79d986" /><rect x="40" y="25" width="5" height="5" fill="#79d986" /><rect x="0" y="30" width="5" height="5" fill="#79d986" /><rect x="10" y="30" width="5" height="5" fill="#79d986" /><rect x="30" y="30" width="5" height="5" fill="#79d986" /><rect x="40" y="30" width="5" height="5" fill="#79d986" /><rect x="15" y="35" width="5" height="5" fill="#79d986" /><rect x="25" y="35" width="5" height="5" fill="#79d986" /></g><g transform="translate(262 105)"><rect x="10" y="0" width="5" height="5" fill="#79d986" /><rect x="30" y="0" width="5" height="5" fill="#79d986" /><rect x="15" y="5" width="5" height="5" fill="#79d986" /><rect x="25" y="5" width="5" height="5" fill="#79d986" /><rect x="10" y="10" width="5" height="5" fill="#79d986" /><rect x="15" y="10" width="5" height="5" fill="#79d986" /><rect x="20" y="10" width="5" height="5" fill="#79d986" /><rect x="25" y="10" width="5" height="5" fill="#79d986" /><rect x="30" y="10" width="5" height="5" fill="#79d986" /><rect x="5" y="15" width="5" height="5" fill="#79d986" /><rect x="10" y="15" width="5" height="5" fill="#79d986" /><rect x="20" y="15" width="5" height="5" fill="#79d986" /><rect x="30" y="15" width="5" height="5" fill="#79d986" /><rect x="35" y="15" width="5" height="5" fill="#79d986" /><rect x="0" y="20" width="5" height="5" fill="#79d986" /><rect x="5" y="20" width="5" height="5" fill="#79d986" /><rect x="10" y="20" width="5" height="5" fill="#79d986" /><rect x="15" y="20" width="5" height="5" fill="#79d986" /><rect x="20" y="20" width="5" height="5" fill="#79d986" /><rect x="25" y="20" width="5" height="5" fill="#79d986" /><rect x="30" y="20" width="5" height="5" fill="#79d986" /><rect x="35" y="20" width="5" height="5" fill="#79d986" /><rect x="40" y="20" width="5" height="5" fill="#79d986" /><rect x="0" y="25" width="5" height="5" fill="#79d986" /><rect x="10" y="25" width="5" height="5" fill="#79d986" /><rect x="15" y="25" width="5" height="5" fill="#79d986" /><rect x="20" y="25" width="5" height="5" fill="#79d986" /><rect x="25" y="25" width="5" height="5" fill="#79d986" /><rect x="30" y="25" width="5" height="5" fill="#79d986" /><rect x="40" y="25" width="5" height="5" fill="#79d986" /><rect x="0" y="30" width="5" height="5" fill="#79d986" /><rect x="10" y="30" width="5" height="5" fill="#79d986" /><rect x="30" y="30" width="5" height="5" fill="#79d986" /><rect x="40" y="30" width="5" height="5" fill="#79d986" /><rect x="15" y="35" width="5" height="5" fill="#79d986" /><rect x="25" y="35" width="5" height="5" fill="#79d986" /></g><g transform="translate(338 105)"><rect x="10" y="0" width="5" height="5" fill="#79d986" /><rect x="30" y="0" width="5" height="5" fill="#79d986" /><rect x="15" y="5" width="5" height="5" fill="#79d986" /><rect x="25" y="5" width="5" height="5" fill="#79d986" /><rect x="10" y="10" width="5" height="5" fill="#79d986" /><rect x="15" y="10" width="5" height="5" fill="#79d986" /><rect x="20" y="10" width="5" height="5" fill="#79d986" /><rect x="25" y="10" width="5" height="5" fill="#79d986" /><rect x="30" y="10" width="5" height="5" fill="#79d986" /><rect x="5" y="15" width="5" height="5" fill="#79d986" /><rect x="10" y="15" width="5" height="5" fill="#79d986" /><rect x="20" y="15" width="5" height="5" fill="#79d986" /><rect x="30" y="15" width="5" height="5" fill="#79d986" /><rect x="35" y="15" width="5" height="5" fill="#79d986" /><rect x="0" y="20" width="5" height="5" fill="#79d986" /><rect x="5" y="20" width="5" height="5" fill="#79d986" /><rect x="10" y="20" width="5" height="5" fill="#79d986" /><rect x="15" y="20" width="5" height="5" fill="#79d986" /><rect x="20" y="20" width="5" height="5" fill="#79d986" /><rect x="25" y="20" width="5" height="5" fill="#79d986" /><rect x="30" y="20" width="5" height="5" fill="#79d986" /><rect x="35" y="20" width="5" height="5" fill="#79d986" /><rect x="40" y="20" width="5" height="5" fill="#79d986" /><rect x="0" y="25" width="5" height="5" fill="#79d986" /><rect x="10" y="25" width="5" height="5" fill="#79d986" /><rect x="15" y="25" width="5" height="5" fill="#79d986" /><rect x="20" y="25" width="5" height="5" fill="#79d986" /><rect x="25" y="25" width="5" height="5" fill="#79d986" /><rect x="30" y="25" width="5" height="5" fill="#79d986" /><rect x="40" y="25" width="5" height="5" fill="#79d986" /><rect x="0" y="30" width="5" height="5" fill="#79d986" /><rect x="10" y="30" width="5" height="5" fill="#79d986" /><rect x="30" y="30" width="5" height="5" fill="#79d986" /><rect x="40" y="30" width="5" height="5" fill="#79d986" /><rect x="15" y="35" width="5" height="5" fill="#79d986" /><rect x="25" y="35" width="5" height="5" fill="#79d986" /></g><g transform="translate(414 105)"><rect x="10" y="0" width="5" height="5" fill="#79d986" /><rect x="30" y="0" width="5" height="5" fill="#79d986" /><rect x="15" y="5" width="5" height="5" fill="#79d986" /><rect x="25" y="5" width="5" height="5" fill="#79d986" /><rect x="10" y="10" width="5" height="5" fill="#79d986" /><rect x="15" y="10" width="5" height="5" fill="#79d986" /><rect x="20" y="10" width="5" height="5" fill="#79d986" /><rect x="25" y="10" width="5" height="5" fill="#79d986" /><rect x="30" y="10" width="5" height="5" fill="#79d986" /><rect x="5" y="15" width="5" height="5" fill="#79d986" /><rect x="10" y="15" width="5" height="5" fill="#79d986" /><rect x="20" y="15" width="5" height="5" fill="#79d986" /><rect x="30" y="15" width="5" height="5" fill="#79d986" /><rect x="35" y="15" width="5" height="5" fill="#79d986" /><rect x="0" y="20" width="5" height="5" fill="#79d986" /><rect x="5" y="20" width="5" height="5" fill="#79d986" /><rect x="10" y="20" width="5" height="5" fill="#79d986" /><rect x="15" y="20" width="5" height="5" fill="#79d986" /><rect x="20" y="20" width="5" height="5" fill="#79d986" /><rect x="25" y="20" width="5" height="5" fill="#79d986" /><rect x="30" y="20" width="5" height="5" fill="#79d986" /><rect x="35" y="20" width="5" height="5" fill="#79d986" /><rect x="40" y="20" width="5" height="5" fill="#79d986" /><rect x="0" y="25" width="5" height="5" fill="#79d986" /><rect x="10" y="25" width="5" height="5" fill="#79d986" /><rect x="15" y="25" width="5" height="5" fill="#79d986" /><rect x="20" y="25" width="5" height="5" fill="#79d986" /><rect x="25" y="25" width="5" height="5" fill="#79d986" /><rect x="30" y="25" width="5" height="5" fill="#79d986" /><rect x="40" y="25" width="5" height="5" fill="#79d986" /><rect x="0" y="30" width="5" height="5" fill="#79d986" /><rect x="10" y="30" width="5" height="5" fill="#79d986" /><rect x="30" y="30" width="5" height="5" fill="#79d986" /><rect x="40" y="30" width="5" height="5" fill="#79d986" /><rect x="15" y="35" width="5" height="5" fill="#79d986" /><rect x="25" y="35" width="5" height="5" fill="#79d986" /></g><g transform="translate(110 162)"><rect x="10" y="0" width="5" height="5" fill="#52a6b7" /><rect x="30" y="0" width="5" height="5" fill="#52a6b7" /><rect x="15" y="5" width="5" height="5" fill="#52a6b7" /><rect x="25" y="5" width="5" height="5" fill="#52a6b7" /><rect x="10" y="10" width="5" height="5" fill="#52a6b7" /><rect x="15" y="10" width="5" height="5" fill="#52a6b7" /><rect x="20" y="10" width="5" height="5" fill="#52a6b7" /><rect x="25" y="10" width="5" height="5" fill="#52a6b7" /><rect x="30" y="10" width="5" height="5" fill="#52a6b7" /><rect x="5" y="15" width="5" height="5" fill="#52a6b7" /><rect x="10" y="15" width="5" height="5" fill="#52a6b7" /><rect x="20" y="15" width="5" height="5" fill="#52a6b7" /><rect x="30" y="15" width="5" height="5" fill="#52a6b7" /><rect x="35" y="15" width="5" height="5" fill="#52a6b7" /><rect x="0" y="20" width="5" height="5" fill="#52a6b7" /><rect x="5" y="20" width="5" height="5" fill="#52a6b7" /><rect x="10" y="20" width="5" height="5" fill="#52a6b7" /><rect x="15" y="20" width="5" height="5" fill="#52a6b7" /><rect x="20" y="20" width="5" height="5" fill="#52a6b7" /><rect x="25" y="20" width="5" height="5" fill="#52a6b7" /><rect x="30" y="20" width="5" height="5" fill="#52a6b7" /><rect x="35" y="20" width="5" height="5" fill="#52a6b7" /><rect x="40" y="20" width="5" height="5" fill="#52a6b7" /><rect x="0" y="25" width="5" height="5" fill="#52a6b7" /><rect x="10" y="25" width="5" height="5" fill="#52a6b7" /><rect x="15" y="25" width="5" height="5" fill="#52a6b7" /><rect x="20" y="25" width="5" height="5" fill="#52a6b7" /><rect x="25" y="25" width="5" height="5" fill="#52a6b7" /><rect x="30" y="25" width="5" height="5" fill="#52a6b7" /><rect x="40" y="25" width="5" height="5" fill="#52a6b7" /><rect x="0" y="30" width="5" height="5" fill="#52a6b7" /><rect x="10" y="30" width="5" height="5" fill="#52a6b7" /><rect x="30" y="30" width="5" height="5" fill="#52a6b7" /><rect x="40" y="30" width="5" height="5" fill="#52a6b7" /><rect x="15" y="35" width="5" height="5" fill="#52a6b7" /><rect x="25" y="35" width="5" height="5" fill="#52a6b7" /></g><g transform="translate(186 162)"><rect x="10" y="0" width="5" height="5" fill="#52a6b7" /><rect x="30" y="0" width="5" height="5" fill="#52a6b7" /><rect x="15" y="5" width="5" height="5" fill="#52a6b7" /><rect x="25" y="5" width="5" height="5" fill="#52a6b7" /><rect x="10" y="10" width="5" height="5" fill="#52a6b7" /><rect x="15" y="10" width="5" height="5" fill="#52a6b7" /><rect x="20" y="10" width="5" height="5" fill="#52a6b7" /><rect x="25" y="10" width="5" height="5" fill="#52a6b7" /><rect x="30" y="10" width="5" height="5" fill="#52a6b7" /><rect x="5" y="15" width="5" height="5" fill="#52a6b7" /><rect x="10" y="15" width="5" height="5" fill="#52a6b7" /><rect x="20" y="15" width="5" height="5" fill="#52a6b7" /><rect x="30" y="15" width="5" height="5" fill="#52a6b7" /><rect x="35" y="15" width="5" height="5" fill="#52a6b7" /><rect x="0" y="20" width="5" height="5" fill="#52a6b7" /><rect x="5" y="20" width="5" height="5" fill="#52a6b7" /><rect x="10" y="20" width="5" height="5" fill="#52a6b7" /><rect x="15" y="20" width="5" height="5" fill="#52a6b7" /><rect x="20" y="20" width="5" height="5" fill="#52a6b7" /><rect x="25" y="20" width="5" height="5" fill="#52a6b7" /><rect x="30" y="20" width="5" height="5" fill="#52a6b7" /><rect x="35" y="20" width="5" height="5" fill="#52a6b7" /><rect x="40" y="20" width="5" height="5" fill="#52a6b7" /><rect x="0" y="25" width="5" height="5" fill="#52a6b7" /><rect x="10" y="25" width="5" height="5" fill="#52a6b7" /><rect x="15" y="25" width="5" height="5" fill="#52a6b7" /><rect x="20" y="25" width="5" height="5" fill="#52a6b7" /><rect x="25" y="25" width="5" height="5" fill="#52a6b7" /><rect x="30" y="25" width="5" height="5" fill="#52a6b7" /><rect x="40" y="25" width="5" height="5" fill="#52a6b7" /><rect x="0" y="30" width="5" height="5" fill="#52a6b7" /><rect x="10" y="30" width="5" height="5" fill="#52a6b7" /><rect x="30" y="30" width="5" height="5" fill="#52a6b7" /><rect x="40" y="30" width="5" height="5" fill="#52a6b7" /><rect x="15" y="35" width="5" height="5" fill="#52a6b7" /><rect x="25" y="35" width="5" height="5" fill="#52a6b7" /></g><g transform="translate(262 162)"><rect x="10" y="0" width="5" height="5" fill="#52a6b7" /><rect x="30" y="0" width="5" height="5" fill="#52a6b7" /><rect x="15" y="5" width="5" height="5" fill="#52a6b7" /><rect x="25" y="5" width="5" height="5" fill="#52a6b7" /><rect x="10" y="10" width="5" height="5" fill="#52a6b7" /><rect x="15" y="10" width="5" height="5" fill="#52a6b7" /><rect x="20" y="10" width="5" height="5" fill="#52a6b7" /><rect x="25" y="10" width="5" height="5" fill="#52a6b7" /><rect x="30" y="10" width="5" height="5" fill="#52a6b7" /><rect x="5" y="15" width="5" height="5" fill="#52a6b7" /><rect x="10" y="15" width="5" height="5" fill="#52a6b7" /><rect x="20" y="15" width="5" height="5" fill="#52a6b7" /><rect x="30" y="15" width="5" height="5" fill="#52a6b7" /><rect x="35" y="15" width="5" height="5" fill="#52a6b7" /><rect x="0" y="20" width="5" height="5" fill="#52a6b7" /><rect x="5" y="20" width="5" height="5" fill="#52a6b7" /><rect x="10" y="20" width="5" height="5" fill="#52a6b7" /><rect x="15" y="20" width="5" height="5" fill="#52a6b7" /><rect x="20" y="20" width="5" height="5" fill="#52a6b7" /><rect x="25" y="20" width="5" height="5" fill="#52a6b7" /><rect x="30" y="20" width="5" height="5" fill="#52a6b7" /><rect x="35" y="20" width="5" height="5" fill="#52a6b7" /><rect x="40" y="20" width="5" height="5" fill="#52a6b7" /><rect x="0" y="25" width="5" height="5" fill="#52a6b7" /><rect x="10" y="25" width="5" height="5" fill="#52a6b7" /><rect x="15" y="25" width="5" height="5" fill="#52a6b7" /><rect x="20" y="25" width="5" height="5" fill="#52a6b7" /><rect x="25" y="25" width="5" height="5" fill="#52a6b7" /><rect x="30" y="25" width="5" height="5" fill="#52a6b7" /><rect x="40" y="25" width="5" height="5" fill="#52a6b7" /><rect x="0" y="30" width="5" height="5" fill="#52a6b7" /><rect x="10" y="30" width="5" height="5" fill="#52a6b7" /><rect x="30" y="30" width="5" height="5" fill="#52a6b7" /><rect x="40" y="30" width="5" height="5" fill="#52a6b7" /><rect x="15" y="35" width="5" height="5" fill="#52a6b7" /><rect x="25" y="35" width="5" height="5" fill="#52a6b7" /></g><g transform="translate(338 162)"><rect x="10" y="0" width="5" height="5" fill="#52a6b7" /><rect x="30" y="0" width="5" height="5" fill="#52a6b7" /><rect x="15" y="5" width="5" height="5" fill="#52a6b7" /><rect x="25" y="5" width="5" height="5" fill="#52a6b7" /><rect x="10" y="10" width="5" height="5" fill="#52a6b7" /><rect x="15" y="10" width="5" height="5" fill="#52a6b7" /><rect x="20" y="10" width="5" height="5" fill="#52a6b7" /><rect x="25" y="10" width="5" height="5" fill="#52a6b7" /><rect x="30" y="10" width="5" height="5" fill="#52a6b7" /><rect x="5" y="15" width="5" height="5" fill="#52a6b7" /><rect x="10" y="15" width="5" height="5" fill="#52a6b7" /><rect x="20" y="15" width="5" height="5" fill="#52a6b7" /><rect x="30" y="15" width="5" height="5" fill="#52a6b7" /><rect x="35" y="15" width="5" height="5" fill="#52a6b7" /><rect x="0" y="20" width="5" height="5" fill="#52a6b7" /><rect x="5" y="20" width="5" height="5" fill="#52a6b7" /><rect x="10" y="20" width="5" height="5" fill="#52a6b7" /><rect x="15" y="20" width="5" height="5" fill="#52a6b7" /><rect x="20" y="20" width="5" height="5" fill="#52a6b7" /><rect x="25" y="20" width="5" height="5" fill="#52a6b7" /><rect x="30" y="20" width="5" height="5" fill="#52a6b7" /><rect x="35" y="20" width="5" height="5" fill="#52a6b7" /><rect x="40" y="20" width="5" height="5" fill="#52a6b7" /><rect x="0" y="25" width="5" height="5" fill="#52a6b7" /><rect x="10" y="25" width="5" height="5" fill="#52a6b7" /><rect x="15" y="25" width="5" height="5" fill="#52a6b7" /><rect x="20" y="25" width="5" height="5" fill="#52a6b7" /><rect x="25" y="25" width="5" height="5" fill="#52a6b7" /><rect x="30" y="25" width="5" height="5" fill="#52a6b7" /><rect x="40" y="25" width="5" height="5" fill="#52a6b7" /><rect x="0" y="30" width="5" height="5" fill="#52a6b7" /><rect x="10" y="30" width="5" height="5" fill="#52a6b7" /><rect x="30" y="30" width="5" height="5" fill="#52a6b7" /><rect x="40" y="30" width="5" height="5" fill="#52a6b7" /><rect x="15" y="35" width="5" height="5" fill="#52a6b7" /><rect x="25" y="35" width="5" height="5" fill="#52a6b7" /></g><g transform="translate(414 162)"><rect x="10" y="0" width="5" height="5" fill="#52a6b7" /><rect x="30" y="0" width="5" height="5" fill="#52a6b7" /><rect x="15" y="5" width="5" height="5" fill="#52a6b7" /><rect x="25" y="5" width="5" height="5" fill="#52a6b7" /><rect x="10" y="10" width="5" height="5" fill="#52a6b7" /><rect x="15" y="10" width="5" height="5" fill="#52a6b7" /><rect x="20" y="10" width="5" height="5" fill="#52a6b7" /><rect x="25" y="10" width="5" height="5" fill="#52a6b7" /><rect x="30" y="10" width="5" height="5" fill="#52a6b7" /><rect x="5" y="15" width="5" height="5" fill="#52a6b7" /><rect x="10" y="15" width="5" height="5" fill="#52a6b7" /><rect x="20" y="15" width="5" height="5" fill="#52a6b7" /><rect x="30" y="15" width="5" height="5" fill="#52a6b7" /><rect x="35" y="15" width="5" height="5" fill="#52a6b7" /><rect x="0" y="20" width="5" height="5" fill="#52a6b7" /><rect x="5" y="20" width="5" height="5" fill="#52a6b7" /><rect x="10" y="20" width="5" height="5" fill="#52a6b7" /><rect x="15" y="20" width="5" height="5" fill="#52a6b7" /><rect x="20" y="20" width="5" height="5" fill="#52a6b7" /><rect x="25" y="20" width="5" height="5" fill="#52a6b7" /><rect x="30" y="20" width="5" height="5" fill="#52a6b7" /><rect x="35" y="20" width="5" height="5" fill="#52a6b7" /><rect x="40" y="20" width="5" height="5" fill="#52a6b7" /><rect x="0" y="25" width="5" height="5" fill="#52a6b7" /><rect x="10" y="25" width="5" height="5" fill="#52a6b7" /><rect x="15" y="25" width="5" height="5" fill="#52a6b7" /><rect x="20" y="25" width="5" height="5" fill="#52a6b7" /><rect x="25" y="25" width="5" height="5" fill="#52a6b7" /><rect x="30" y="25" width="5" height="5" fill="#52a6b7" /><rect x="40" y="25" width="5" height="5" fill="#52a6b7" /><rect x="0" y="30" width="5" height="5" fill="#52a6b7" /><rect x="10" y="30" width="5" height="5" fill="#52a6b7" /><rect x="30" y="30" width="5" height="5" fill="#52a6b7" /><rect x="40" y="30" width="5" height="5" fill="#52a6b7" /><rect x="15" y="35" width="5" height="5" fill="#52a6b7" /><rect x="25" y="35" width="5" height="5" fill="#52a6b7" /></g><path d="M268 255 289 255 289 239 296 239 296 229 304 229 304 239 311 239 311 255 332 255 332 269 268 269Z" fill="#e7fdd4" /><rect x="297" y="188" width="6" height="26" fill="#e9ff8b" /><rect x="376" y="191" width="5" height="19" fill="#f382ab" /><g opacity=".8"><rect x="88" y="258" width="64" height="20" fill="#6fb884" rx="4"/><rect x="448" y="258" width="64" height="20" fill="#6fb884" rx="4"/></g>
<rect width="600" height="400" fill="url(#shade)"/>
</svg>
