<svg xmlns="http://www.w3.org/2000/svg" width="600" height="400" viewBox="0 0 600 400" role="img" aria-label="Vaporwave Escape illustration">
<defs>
<radialGradient id="a" cx="55%" cy="30%" r="72%"><stop stop-color="#b46dff" stop-opacity=".3"/><stop offset="1" stop-color="#080d19" stop-opacity="0"/></radialGradient>
<linearGradient id="shade" x1="0" x2="0" y1="0" y2="1"><stop offset=".53" stop-color="#070a12" stop-opacity="0"/><stop offset="1" stop-color="#070a12" stop-opacity=".94"/></linearGradient>
<linearGradient id="shine" x1="0" x2="1" y1="0" y2="1"><stop stop-color="#fff" stop-opacity=".18"/><stop offset="1" stop-color="#fff" stop-opacity="0"/></linearGradient>
<filter id="glow" x="-100%" y="-100%" width="300%" height="300%"><feGaussianBlur stdDeviation="8"/></filter>
</defs>
<rect width="600" height="400" fill="#0b1020"/><rect width="600" height="400" fill="url(#a)"/>
<circle cx="22" cy="24" r="2" fill="#d9eaff" opacity="0.14"/><circle cx="135" cy="95" r="1" fill="#d9eaff" opacity="0.22000000000000003"/><circle cx="248" cy="166" r="1" fill="#d9eaff" opacity="0.30000000000000004"/><circle cx="361" cy="237" r="1" fill="#d9eaff" opacity="0.38"/><circle cx="474" cy="58" r="1" fill="#d9eaff" opacity="0.14"/><circle cx="32" cy="129" r="1" fill="#d9eaff" opacity="0.22000000000000003"/><circle cx="145" cy="200" r="2" fill="#d9eaff" opacity="0.30000000000000004"/><circle cx="258" cy="271" r="1" fill="#d9eaff" opacity="0.38"/><circle cx="371" cy="92" r="1" fill="#d9eaff" opacity="0.14"/><circle cx="484" cy="163" r="1" fill="#d9eaff" opacity="0.22000000000000003"/><circle cx="42" cy="234" r="1" fill="#d9eaff" opacity="0.30000000000000004"/><circle cx="155" cy="55" r="1" fill="#d9eaff" opacity="0.38"/><circle cx="268" cy="126" r="2" fill="#d9eaff" opacity="0.14"/><circle cx="381" cy="197" r="1" fill="#d9eaff" opacity="0.22000000000000003"/><circle cx="494" cy="268" r="1" fill="#d9eaff" opacity="0.30000000000000004"/><circle cx="52" cy="89" r="1" fill="#d9eaff" opacity="0.38"/><circle cx="165" cy="160" r="1" fill="#d9eaff" opacity="0.14"/><circle cx="278" cy="231" r="1" fill="#d9eaff" opacity="0.22000000000000003"/><circle cx="391" cy="52" r="2" fill="#d9eaff" opacity="0.30000000000000004"/><circle cx="504" cy="123" r="1" fill="#d9eaff" opacity="0.38"/><circle cx="62" cy="194" r="1" fill="#d9eaff" opacity="0.14"/><circle cx="175" cy="265" r="1" fill="#d9eaff" opacity="0.22000000000000003"/><circle cx="288" cy="86" r="1" fill="#d9eaff" opacity="0.30000000000000004"/><circle cx="401" cy="157" r="1" fill="#d9eaff" opacity="0.38"/><circle cx="514" cy="228" r="2" fill="#d9eaff" opacity="0.14"/><circle cx="72" cy="49" r="1" fill="#d9eaff" opacity="0.22000000000000003"/><circle cx="185" cy="120" r="1" fill="#d9eaff" opacity="0.30000000000000004"/><circle cx="298" cy="191" r="1" fill="#d9eaff" opacity="0.38"/><circle cx="411" cy="262" r="1" fill="#d9eaff" opacity="0.14"/><circle cx="524" cy="83" r="1" fill="#d9eaff" opacity="0.22000000000000003"/><g opacity=".7"><path d="M0 305 300 146 600 305 600 400 0 400" fill="#171342" /><line x1="300" y1="146" x2="0" y2="400" stroke="#a54ee5" stroke-width="1.5" /><line x1="300" y1="146" x2="60" y2="400" stroke="#a54ee5" stroke-width="1.5" /><line x1="300" y1="146" x2="120" y2="400" stroke="#a54ee5" stroke-width="1.5" /><line x1="300" y1="146" x2="180" y2="400" stroke="#a54ee5" stroke-width="1.5" /><line x1="300" y1="146" x2="240" y2="400" stroke="#a54ee5" stroke-width="1.5" /><line x1="300" y1="146" x2="300" y2="400" stroke="#a54ee5" stroke-width="1.5" /><line x1="300" y1="146" x2="360" y2="400" stroke="#a54ee5" stroke-width="1.5" /><line x1="300" y1="146" x2="420" y2="400" stroke="#a54ee5" stroke-width="1.5" /><line x1="300" y1="146" x2="480" y2="400" stroke="#a54ee5" stroke-width="1.5" /><line x1="300" y1="146" x2="540" y2="400" stroke="#a54ee5" stroke-width="1.5" /><line x1="300" y1="146" x2="600" y2="400" stroke="#a54ee5" stroke-width="1.5" /><line x1="0" y1="210" x2="600" y2="210" stroke="#8748b5" stroke-width="1.5" /><line x1="0" y1="245" x2="600" y2="245" stroke="#8748b5" stroke-width="1.5" /><line x1="0" y1="290" x2="600" y2="290" stroke="#8748b5" stroke-width="1.5" /><line x1="0" y1="350" x2="600" y2="350" stroke="#8748b5" stroke-width="1.5" /></g><circle cx="300" cy="133" r="79" fill="#df60db" opacity=".12" filter="url(#glow)"/><g fill="none" stroke="#ff8adf" stroke-width="3" opacity=".55"><circle cx="300" cy="133" r="67" fill="none" /><circle cx="300" cy="133" r="52" fill="none" /><circle cx="300" cy="133" r="37" fill="none" /></g><g transform="translate(300 155) rotate(-17)"><rect x="-42" y="-42" width="84" height="84" fill="#94f8d1" rx="13"/><rect x="-31" y="-31" width="62" height="62" fill="#162840" rx="8"/><rect x="-19" y="-19" width="38" height="38" fill="#befc6b" rx="4"/></g><path d="M100 203 125 157 149 203Z" fill="#a46cff" stroke="#d2b7ff" stroke-width="3"/><path d="M427 73 451 111 409 115Z" fill="#ff807d" stroke="#ffc4a8" stroke-width="3"/><g transform="translate(457 211) rotate(25)"><rect x="-22" y="-22" width="44" height="44" fill="none" stroke="#5ffaff" stroke-width="5" rx="4"/></g><circle cx="146" cy="82" r="12" fill="#ffe27a" /><line x1="174" y1="243" x2="219" y2="207" stroke="#d2fffa" stroke-width="3" opacity=".4"/><line x1="159" y1="243" x2="204" y2="207" stroke="#d2fffa" stroke-width="3" opacity=".2"/>
<rect width="600" height="400" fill="url(#shade)"/>
</svg>
