<svg xmlns="http://www.w3.org/2000/svg" width="600" height="400" viewBox="0 0 600 400" role="img" aria-label="Breakout illustration">
<defs>
<radialGradient id="a" cx="55%" cy="30%" r="72%"><stop stop-color="#7d70ff" stop-opacity=".3"/><stop offset="1" stop-color="#080d19" stop-opacity="0"/></radialGradient>
<linearGradient id="shade" x1="0" x2="0" y1="0" y2="1"><stop offset=".53" stop-color="#070a12" stop-opacity="0"/><stop offset="1" stop-color="#070a12" stop-opacity=".94"/></linearGradient>
<linearGradient id="shine" x1="0" x2="1" y1="0" y2="1"><stop stop-color="#fff" stop-opacity=".18"/><stop offset="1" stop-color="#fff" stop-opacity="0"/></linearGradient>
<filter id="glow" x="-100%" y="-100%" width="300%" height="300%"><feGaussianBlur stdDeviation="8"/></filter>
</defs>
<rect width="600" height="400" fill="#0b1020"/><rect width="600" height="400" fill="url(#a)"/>
<circle cx="22" cy="24" r="2" fill="#d9eaff" opacity="0.14"/><circle cx="135" cy="95" r="1" fill="#d9eaff" opacity="0.22000000000000003"/><circle cx="248" cy="166" r="1" fill="#d9eaff" opacity="0.30000000000000004"/><circle cx="361" cy="237" r="1" fill="#d9eaff" opacity="0.38"/><circle cx="474" cy="58" r="1" fill="#d9eaff" opacity="0.14"/><circle cx="32" cy="129" r="1" fill="#d9eaff" opacity="0.22000000000000003"/><circle cx="145" cy="200" r="2" fill="#d9eaff" opacity="0.30000000000000004"/><circle cx="258" cy="271" r="1" fill="#d9eaff" opacity="0.38"/><circle cx="371" cy="92" r="1" fill="#d9eaff" opacity="0.14"/><circle cx="484" cy="163" r="1" fill="#d9eaff" opacity="0.22000000000000003"/><circle cx="42" cy="234" r="1" fill="#d9eaff" opacity="0.30000000000000004"/><circle cx="155" cy="55" r="1" fill="#d9eaff" opacity="0.38"/><circle cx="268" cy="126" r="2" fill="#d9eaff" opacity="0.14"/><circle cx="381" cy="197" r="1" fill="#d9eaff" opacity="0.22000000000000003"/><circle cx="494" cy="268" r="1" fill="#d9eaff" opacity="0.30000000000000004"/><circle cx="52" cy="89" r="1" fill="#d9eaff" opacity="0.38"/><circle cx="165" cy="160" r="1" fill="#d9eaff" opacity="0.14"/><circle cx="278" cy="231" r="1" fill="#d9eaff" opacity="0.22000000000000003"/><circle cx="391" cy="52" r="2" fill="#d9eaff" opacity="0.30000000000000004"/><circle cx="504" cy="123" r="1" fill="#d9eaff" opacity="0.38"/><circle cx="62" cy="194" r="1" fill="#d9eaff" opacity="0.14"/><circle cx="175" cy="265" r="1" fill="#d9eaff" opacity="0.22000000000000003"/><circle cx="288" cy="86" r="1" fill="#d9eaff" opacity="0.30000000000000004"/><circle cx="401" cy="157" r="1" fill="#d9eaff" opacity="0.38"/><circle cx="514" cy="228" r="2" fill="#d9eaff" opacity="0.14"/><circle cx="72" cy="49" r="1" fill="#d9eaff" opacity="0.22000000000000003"/><circle cx="185" cy="120" r="1" fill="#d9eaff" opacity="0.30000000000000004"/><circle cx="298" cy="191" r="1" fill="#d9eaff" opacity="0.38"/><circle cx="411" cy="262" r="1" fill="#d9eaff" opacity="0.14"/><circle cx="524" cy="83" r="1" fill="#d9eaff" opacity="0.22000000000000003"/><g transform="translate(80 38) rotate(-5 225 110)"><rect x="0" y="0" width="66" height="28" fill="#a879fa" rx="5"/><rect x="75" y="0" width="66" height="28" fill="#a879fa" rx="5"/><rect x="150" y="0" width="66" height="28" fill="#a879fa" rx="5"/><rect x="225" y="0" width="66" height="28" fill="#a879fa" rx="5"/><rect x="300" y="0" width="66" height="28" fill="#a879fa" rx="5"/><rect x="375" y="0" width="66" height="28" fill="#a879fa" rx="5"/><rect x="0" y="38" width="66" height="28" fill="#f586b5" rx="5"/><rect x="75" y="38" width="66" height="28" fill="#f586b5" rx="5"/><rect x="150" y="38" width="66" height="28" fill="#f586b5" rx="5"/><rect x="225" y="38" width="66" height="28" fill="#f586b5" rx="5"/><rect x="300" y="38" width="66" height="28" fill="#f586b5" rx="5"/><rect x="375" y="38" width="66" height="28" fill="#f586b5" rx="5"/><rect x="0" y="76" width="66" height="28" fill="#f4a354" rx="5"/><rect x="75" y="76" width="66" height="28" fill="#f4a354" rx="5"/><rect x="150" y="76" width="66" height="28" fill="#f4a354" rx="5"/><rect x="300" y="76" width="66" height="28" fill="#f4a354" rx="5"/><rect x="375" y="76" width="66" height="28" fill="#f4a354" rx="5"/><rect x="0" y="114" width="66" height="28" fill="#c9f075" rx="5"/><rect x="75" y="114" width="66" height="28" fill="#c9f075" rx="5"/><rect x="225" y="114" width="66" height="28" fill="#c9f075" rx="5"/><rect x="300" y="114" width="66" height="28" fill="#c9f075" rx="5"/><rect x="375" y="114" width="66" height="28" fill="#c9f075" rx="5"/></g><path d="M307 145 224 242 349 285" fill="none" stroke="#b6edff" stroke-width="3" stroke-dasharray="6 9" opacity=".3"/><rect x="215" y="269" width="142" height="14" fill="#bdeefa" rx="7"/><circle cx="263" cy="223" r="12" fill="#fafff9" /><circle cx="263" cy="223" r="20" fill="#9deaff" opacity=".23" filter="url(#glow)"/><g fill="#dafc84" transform="translate(245 169)"><rect x="-23" y="-12" width="12" height="9" fill="#dafc84" transform="rotate(-23)"/><rect x="12" y="-7" width="15" height="9" fill="#dafc84" transform="rotate(29)"/></g>
<rect width="600" height="400" fill="url(#shade)"/>
</svg>
