<svg xmlns="http://www.w3.org/2000/svg" width="600" height="400" viewBox="0 0 600 400" role="img" aria-label="Hextris illustration">
<defs>
<radialGradient id="a" cx="55%" cy="30%" r="72%"><stop stop-color="#9576e5" stop-opacity=".3"/><stop offset="1" stop-color="#080d19" stop-opacity="0"/></radialGradient>
<linearGradient id="shade" x1="0" x2="0" y1="0" y2="1"><stop offset=".53" stop-color="#070a12" stop-opacity="0"/><stop offset="1" stop-color="#070a12" stop-opacity=".94"/></linearGradient>
<linearGradient id="shine" x1="0" x2="1" y1="0" y2="1"><stop stop-color="#fff" stop-opacity=".45"/><stop offset=".45" stop-color="#fff" stop-opacity=".08"/><stop offset="1" stop-color="#000" stop-opacity=".13"/></linearGradient>
<filter id="glow" x="-100%" y="-100%" width="300%" height="300%"><feGaussianBlur stdDeviation="8"/></filter>
</defs>
<rect width="600" height="400" fill="#0b1020"/><rect width="600" height="400" fill="url(#a)"/>
<circle cx="22" cy="24" r="2" fill="#b2f8ee" opacity="0.14"/><circle cx="135" cy="95" r="1" fill="#b2f8ee" opacity="0.22000000000000003"/><circle cx="248" cy="166" r="1" fill="#b2f8ee" opacity="0.30000000000000004"/><circle cx="361" cy="237" r="1" fill="#b2f8ee" opacity="0.38"/><circle cx="474" cy="58" r="1" fill="#b2f8ee" opacity="0.14"/><circle cx="32" cy="129" r="1" fill="#b2f8ee" opacity="0.22000000000000003"/><circle cx="145" cy="200" r="2" fill="#b2f8ee" opacity="0.30000000000000004"/><circle cx="258" cy="271" r="1" fill="#b2f8ee" opacity="0.38"/><circle cx="371" cy="92" r="1" fill="#b2f8ee" opacity="0.14"/><circle cx="484" cy="163" r="1" fill="#b2f8ee" opacity="0.22000000000000003"/><circle cx="42" cy="234" r="1" fill="#b2f8ee" opacity="0.30000000000000004"/><circle cx="155" cy="55" r="1" fill="#b2f8ee" opacity="0.38"/><circle cx="268" cy="126" r="2" fill="#b2f8ee" opacity="0.14"/><circle cx="381" cy="197" r="1" fill="#b2f8ee" opacity="0.22000000000000003"/><circle cx="494" cy="268" r="1" fill="#b2f8ee" opacity="0.30000000000000004"/><circle cx="52" cy="89" r="1" fill="#b2f8ee" opacity="0.38"/><circle cx="165" cy="160" r="1" fill="#b2f8ee" opacity="0.14"/><circle cx="278" cy="231" r="1" fill="#b2f8ee" opacity="0.22000000000000003"/><circle cx="391" cy="52" r="2" fill="#b2f8ee" opacity="0.30000000000000004"/><circle cx="504" cy="123" r="1" fill="#b2f8ee" opacity="0.38"/><circle cx="62" cy="194" r="1" fill="#b2f8ee" opacity="0.14"/><circle cx="175" cy="265" r="1" fill="#b2f8ee" opacity="0.22000000000000003"/><circle cx="288" cy="86" r="1" fill="#b2f8ee" opacity="0.30000000000000004"/><circle cx="401" cy="157" r="1" fill="#b2f8ee" opacity="0.38"/><circle cx="514" cy="228" r="2" fill="#b2f8ee" opacity="0.14"/><circle cx="72" cy="49" r="1" fill="#b2f8ee" opacity="0.22000000000000003"/><circle cx="185" cy="120" r="1" fill="#b2f8ee" opacity="0.30000000000000004"/><circle cx="298" cy="191" r="1" fill="#b2f8ee" opacity="0.38"/><circle cx="411" cy="262" r="1" fill="#b2f8ee" opacity="0.14"/><circle cx="524" cy="83" r="1" fill="#b2f8ee" opacity="0.22000000000000003"/><polygon points="386.6025403784439,100 386.6025403784439,200 370.14805770653953,190.5 370.14805770653953,109.5" fill="#67d8ce" stroke="#121b2b" stroke-width="5" stroke-linejoin="round"/><polygon points="386.6025403784439,200 300,250 300,231 370.14805770653953,190.5" fill="#a97fea" stroke="#121b2b" stroke-width="5" stroke-linejoin="round"/><polygon points="300,250 213.39745962155612,200 229.85194229346047,190.5 300,231" fill="#f084aa" stroke="#121b2b" stroke-width="5" stroke-linejoin="round"/><polygon points="213.39745962155612,200 213.39745962155615,99.99999999999999 229.85194229346047,109.5 229.85194229346047,190.5" fill="#f2b56d" stroke="#121b2b" stroke-width="5" stroke-linejoin="round"/><polygon points="213.39745962155615,99.99999999999999 300,50 300,69 229.85194229346047,109.5" fill="#c2e76f" stroke="#121b2b" stroke-width="5" stroke-linejoin="round"/><polygon points="300,50 386.6025403784439,100 370.14805770653953,109.5 300,69" fill="#6fb5ec" stroke="#121b2b" stroke-width="5" stroke-linejoin="round"/><polygon points="408.25317547305485,87.5 408.25317547305485,212.5 390.93266739736606,202.5 390.93266739736606,97.5" fill="#f084aa" stroke="#121b2b" stroke-width="5" stroke-linejoin="round"/><polygon points="408.25317547305485,212.5 300,275 300,255 390.93266739736606,202.5" fill="#f2b56d" stroke="#121b2b" stroke-width="5" stroke-linejoin="round"/><polygon points="191.74682452694515,212.5 191.74682452694518,87.49999999999999 209.06733260263394,97.49999999999999 209.06733260263394,202.5" fill="#6fb5ec" stroke="#121b2b" stroke-width="5" stroke-linejoin="round"/><polygon points="191.74682452694518,87.49999999999999 300,25 300,45 209.06733260263394,97.49999999999999" fill="#67d8ce" stroke="#121b2b" stroke-width="5" stroke-linejoin="round"/><polygon points="300,25 408.25317547305485,87.5 390.93266739736606,97.5 300,45" fill="#a97fea" stroke="#121b2b" stroke-width="5" stroke-linejoin="round"/><polygon points="429.9038105676658,75.00000000000001 429.9038105676658,225 412.58330249197707,215 412.58330249197707,85.00000000000001" fill="#c2e76f" stroke="#121b2b" stroke-width="5" stroke-linejoin="round"/><polygon points="429.9038105676658,225 300,300 300,280 412.58330249197707,215" fill="#6fb5ec" stroke="#121b2b" stroke-width="5" stroke-linejoin="round"/><polygon points="170.0961894323342,74.99999999999999 300,0 300,20 187.416697508023,84.99999999999999" fill="#f084aa" stroke="#121b2b" stroke-width="5" stroke-linejoin="round"/><polygon points="362.3538290724796,114 362.3538290724796,186 300,222 237.64617092752042,186 237.64617092752042,114 300,78" fill="#122a36" stroke="#96efd6" stroke-width="3"/><polygon points="349.363448015713,121.5 349.363448015713,178.5 300,207 250.636551984287,178.5 250.636551984287,121.5 300,93" fill="#1b3c43" /><polygon points="317.3205080756888,140 317.3205080756888,160 300,170 282.6794919243112,160 282.6794919243112,140 300,130" fill="#b5efbb" /><path d="M94 113 129 92 133 101 98 122Z" fill="#e6b67c" /><path d="M440 253 473 273 468 282 435 262Z" fill="#b78deb" />
<rect width="600" height="400" fill="url(#shade)"/>
</svg>
