<svg xmlns="http://www.w3.org/2000/svg" width="600" height="400" viewBox="0 0 600 400" role="img" aria-label="Tetris illustration">
<defs>
<radialGradient id="a" cx="55%" cy="30%" r="72%"><stop stop-color="#9a69e9" stop-opacity=".3"/><stop offset="1" stop-color="#080d19" stop-opacity="0"/></radialGradient>
<linearGradient id="shade" x1="0" x2="0" y1="0" y2="1"><stop offset=".53" stop-color="#070a12" stop-opacity="0"/><stop offset="1" stop-color="#070a12" stop-opacity=".94"/></linearGradient>
<linearGradient id="shine" x1="0" x2="1" y1="0" y2="1"><stop stop-color="#fff" stop-opacity=".45"/><stop offset=".45" stop-color="#fff" stop-opacity=".08"/><stop offset="1" stop-color="#000" stop-opacity=".13"/></linearGradient>
<filter id="glow" x="-100%" y="-100%" width="300%" height="300%"><feGaussianBlur stdDeviation="8"/></filter>
</defs>
<rect width="600" height="400" fill="#0b1020"/><rect width="600" height="400" fill="url(#a)"/>
<circle cx="22" cy="24" r="2" fill="#c4b8eb" opacity="0.14"/><circle cx="135" cy="95" r="1" fill="#c4b8eb" opacity="0.22000000000000003"/><circle cx="248" cy="166" r="1" fill="#c4b8eb" opacity="0.30000000000000004"/><circle cx="361" cy="237" r="1" fill="#c4b8eb" opacity="0.38"/><circle cx="474" cy="58" r="1" fill="#c4b8eb" opacity="0.14"/><circle cx="32" cy="129" r="1" fill="#c4b8eb" opacity="0.22000000000000003"/><circle cx="145" cy="200" r="2" fill="#c4b8eb" opacity="0.30000000000000004"/><circle cx="258" cy="271" r="1" fill="#c4b8eb" opacity="0.38"/><circle cx="371" cy="92" r="1" fill="#c4b8eb" opacity="0.14"/><circle cx="484" cy="163" r="1" fill="#c4b8eb" opacity="0.22000000000000003"/><circle cx="42" cy="234" r="1" fill="#c4b8eb" opacity="0.30000000000000004"/><circle cx="155" cy="55" r="1" fill="#c4b8eb" opacity="0.38"/><circle cx="268" cy="126" r="2" fill="#c4b8eb" opacity="0.14"/><circle cx="381" cy="197" r="1" fill="#c4b8eb" opacity="0.22000000000000003"/><circle cx="494" cy="268" r="1" fill="#c4b8eb" opacity="0.30000000000000004"/><circle cx="52" cy="89" r="1" fill="#c4b8eb" opacity="0.38"/><circle cx="165" cy="160" r="1" fill="#c4b8eb" opacity="0.14"/><circle cx="278" cy="231" r="1" fill="#c4b8eb" opacity="0.22000000000000003"/><circle cx="391" cy="52" r="2" fill="#c4b8eb" opacity="0.30000000000000004"/><circle cx="504" cy="123" r="1" fill="#c4b8eb" opacity="0.38"/><circle cx="62" cy="194" r="1" fill="#c4b8eb" opacity="0.14"/><circle cx="175" cy="265" r="1" fill="#c4b8eb" opacity="0.22000000000000003"/><circle cx="288" cy="86" r="1" fill="#c4b8eb" opacity="0.30000000000000004"/><circle cx="401" cy="157" r="1" fill="#c4b8eb" opacity="0.38"/><circle cx="514" cy="228" r="2" fill="#c4b8eb" opacity="0.14"/><circle cx="72" cy="49" r="1" fill="#c4b8eb" opacity="0.22000000000000003"/><circle cx="185" cy="120" r="1" fill="#c4b8eb" opacity="0.30000000000000004"/><circle cx="298" cy="191" r="1" fill="#c4b8eb" opacity="0.38"/><circle cx="411" cy="262" r="1" fill="#c4b8eb" opacity="0.14"/><circle cx="524" cy="83" r="1" fill="#c4b8eb" opacity="0.22000000000000003"/><g transform="translate(145 27) rotate(-7 160 130)"><rect x="-12" y="-12" width="330" height="297" fill="#112238" rx="16" stroke="#414d71" stroke-width="2"/><rect x="0" y="0" width="31" height="31" fill="#182943" rx="3"/><rect x="0" y="34" width="31" height="31" fill="#182943" rx="3"/><rect x="0" y="68" width="31" height="31" fill="#182943" rx="3"/><rect x="0" y="102" width="31" height="31" fill="#182943" rx="3"/><rect x="0" y="136" width="31" height="31" fill="#182943" rx="3"/><rect x="0" y="170" width="31" height="31" fill="#182943" rx="3"/><rect x="0" y="204" width="31" height="31" fill="#182943" rx="3"/><rect x="0" y="238" width="31" height="31" fill="#182943" rx="3"/><rect x="34" y="0" width="31" height="31" fill="#182943" rx="3"/><rect x="34" y="34" width="31" height="31" fill="#182943" rx="3"/><rect x="34" y="68" width="31" height="31" fill="#182943" rx="3"/><rect x="34" y="102" width="31" height="31" fill="#182943" rx="3"/><rect x="34" y="136" width="31" height="31" fill="#182943" rx="3"/><rect x="34" y="170" width="31" height="31" fill="#182943" rx="3"/><rect x="34" y="204" width="31" height="31" fill="#182943" rx="3"/><rect x="34" y="238" width="31" height="31" fill="#182943" rx="3"/><rect x="68" y="0" width="31" height="31" fill="#182943" rx="3"/><rect x="68" y="34" width="31" height="31" fill="#182943" rx="3"/><rect x="68" y="68" width="31" height="31" fill="#182943" rx="3"/><rect x="68" y="102" width="31" height="31" fill="#182943" rx="3"/><rect x="68" y="136" width="31" height="31" fill="#182943" rx="3"/><rect x="68" y="170" width="31" height="31" fill="#182943" rx="3"/><rect x="68" y="204" width="31" height="31" fill="#182943" rx="3"/><rect x="68" y="238" width="31" height="31" fill="#182943" rx="3"/><rect x="102" y="0" width="31" height="31" fill="#182943" rx="3"/><rect x="102" y="34" width="31" height="31" fill="#182943" rx="3"/><rect x="102" y="68" width="31" height="31" fill="#182943" rx="3"/><rect x="102" y="102" width="31" height="31" fill="#182943" rx="3"/><rect x="102" y="136" width="31" height="31" fill="#182943" rx="3"/><rect x="102" y="170" width="31" height="31" fill="#182943" rx="3"/><rect x="102" y="204" width="31" height="31" fill="#182943" rx="3"/><rect x="102" y="238" width="31" height="31" fill="#182943" rx="3"/><rect x="136" y="0" width="31" height="31" fill="#182943" rx="3"/><rect x="136" y="34" width="31" height="31" fill="#182943" rx="3"/><rect x="136" y="68" width="31" height="31" fill="#182943" rx="3"/><rect x="136" y="102" width="31" height="31" fill="#182943" rx="3"/><rect x="136" y="136" width="31" height="31" fill="#182943" rx="3"/><rect x="136" y="170" width="31" height="31" fill="#182943" rx="3"/><rect x="136" y="204" width="31" height="31" fill="#182943" rx="3"/><rect x="136" y="238" width="31" height="31" fill="#182943" rx="3"/><rect x="170" y="0" width="31" height="31" fill="#182943" rx="3"/><rect x="170" y="34" width="31" height="31" fill="#182943" rx="3"/><rect x="170" y="68" width="31" height="31" fill="#182943" rx="3"/><rect x="170" y="102" width="31" height="31" fill="#182943" rx="3"/><rect x="170" y="136" width="31" height="31" fill="#182943" rx="3"/><rect x="170" y="170" width="31" height="31" fill="#182943" rx="3"/><rect x="170" y="204" width="31" height="31" fill="#182943" rx="3"/><rect x="170" y="238" width="31" height="31" fill="#182943" rx="3"/><rect x="204" y="0" width="31" height="31" fill="#182943" rx="3"/><rect x="204" y="34" width="31" height="31" fill="#182943" rx="3"/><rect x="204" y="68" width="31" height="31" fill="#182943" rx="3"/><rect x="204" y="102" width="31" height="31" fill="#182943" rx="3"/><rect x="204" y="136" width="31" height="31" fill="#182943" rx="3"/><rect x="204" y="170" width="31" height="31" fill="#182943" rx="3"/><rect x="204" y="204" width="31" height="31" fill="#182943" rx="3"/><rect x="204" y="238" width="31" height="31" fill="#182943" rx="3"/><rect x="238" y="0" width="31" height="31" fill="#182943" rx="3"/><rect x="238" y="34" width="31" height="31" fill="#182943" rx="3"/><rect x="238" y="68" width="31" height="31" fill="#182943" rx="3"/><rect x="238" y="102" width="31" height="31" fill="#182943" rx="3"/><rect x="238" y="136" width="31" height="31" fill="#182943" rx="3"/><rect x="238" y="170" width="31" height="31" fill="#182943" rx="3"/><rect x="238" y="204" width="31" height="31" fill="#182943" rx="3"/><rect x="238" y="238" width="31" height="31" fill="#182943" rx="3"/><rect x="272" y="0" width="31" height="31" fill="#182943" rx="3"/><rect x="272" y="34" width="31" height="31" fill="#182943" rx="3"/><rect x="272" y="68" width="31" height="31" fill="#182943" rx="3"/><rect x="272" y="102" width="31" height="31" fill="#182943" rx="3"/><rect x="272" y="136" width="31" height="31" fill="#182943" rx="3"/><rect x="272" y="170" width="31" height="31" fill="#182943" rx="3"/><rect x="272" y="204" width="31" height="31" fill="#182943" rx="3"/><rect x="272" y="238" width="31" height="31" fill="#182943" rx="3"/><g><rect x="0" y="238" width="31" height="31" fill="#f0ac69" rx="4"/><rect x="0" y="238" width="31" height="31" fill="url(#shine)" rx="4"/><rect x="6" y="244" width="19" height="19" fill="none" stroke="#ffffff" stroke-opacity=".18" stroke-width="1" rx="2"/></g><g><rect x="34" y="238" width="31" height="31" fill="#f0ac69" rx="4"/><rect x="34" y="238" width="31" height="31" fill="url(#shine)" rx="4"/><rect x="40" y="244" width="19" height="19" fill="none" stroke="#ffffff" stroke-opacity=".18" stroke-width="1" rx="2"/></g><g><rect x="68" y="238" width="31" height="31" fill="#f0ac69" rx="4"/><rect x="68" y="238" width="31" height="31" fill="url(#shine)" rx="4"/><rect x="74" y="244" width="19" height="19" fill="none" stroke="#ffffff" stroke-opacity=".18" stroke-width="1" rx="2"/></g><g><rect x="0" y="204" width="31" height="31" fill="#f0ac69" rx="4"/><rect x="0" y="204" width="31" height="31" fill="url(#shine)" rx="4"/><rect x="6" y="210" width="19" height="19" fill="none" stroke="#ffffff" stroke-opacity=".18" stroke-width="1" rx="2"/></g><g><rect x="102" y="238" width="31" height="31" fill="#91c76b" rx="4"/><rect x="102" y="238" width="31" height="31" fill="url(#shine)" rx="4"/><rect x="108" y="244" width="19" height="19" fill="none" stroke="#ffffff" stroke-opacity=".18" stroke-width="1" rx="2"/></g><g><rect x="136" y="238" width="31" height="31" fill="#91c76b" rx="4"/><rect x="136" y="238" width="31" height="31" fill="url(#shine)" rx="4"/><rect x="142" y="244" width="19" height="19" fill="none" stroke="#ffffff" stroke-opacity=".18" stroke-width="1" rx="2"/></g><g><rect x="136" y="204" width="31" height="31" fill="#91c76b" rx="4"/><rect x="136" y="204" width="31" height="31" fill="url(#shine)" rx="4"/><rect x="142" y="210" width="19" height="19" fill="none" stroke="#ffffff" stroke-opacity=".18" stroke-width="1" rx="2"/></g><g><rect x="170" y="204" width="31" height="31" fill="#91c76b" rx="4"/><rect x="170" y="204" width="31" height="31" fill="url(#shine)" rx="4"/><rect x="176" y="210" width="19" height="19" fill="none" stroke="#ffffff" stroke-opacity=".18" stroke-width="1" rx="2"/></g><g><rect x="170" y="238" width="31" height="31" fill="#66cfe4" rx="4"/><rect x="170" y="238" width="31" height="31" fill="url(#shine)" rx="4"/><rect x="176" y="244" width="19" height="19" fill="none" stroke="#ffffff" stroke-opacity=".18" stroke-width="1" rx="2"/></g><g><rect x="204" y="238" width="31" height="31" fill="#66cfe4" rx="4"/><rect x="204" y="238" width="31" height="31" fill="url(#shine)" rx="4"/><rect x="210" y="244" width="19" height="19" fill="none" stroke="#ffffff" stroke-opacity=".18" stroke-width="1" rx="2"/></g><g><rect x="238" y="238" width="31" height="31" fill="#66cfe4" rx="4"/><rect x="238" y="238" width="31" height="31" fill="url(#shine)" rx="4"/><rect x="244" y="244" width="19" height="19" fill="none" stroke="#ffffff" stroke-opacity=".18" stroke-width="1" rx="2"/></g><g><rect x="272" y="238" width="31" height="31" fill="#66cfe4" rx="4"/><rect x="272" y="238" width="31" height="31" fill="url(#shine)" rx="4"/><rect x="278" y="244" width="19" height="19" fill="none" stroke="#ffffff" stroke-opacity=".18" stroke-width="1" rx="2"/></g><g><rect x="238" y="204" width="31" height="31" fill="#e6ca69" rx="4"/><rect x="238" y="204" width="31" height="31" fill="url(#shine)" rx="4"/><rect x="244" y="210" width="19" height="19" fill="none" stroke="#ffffff" stroke-opacity=".18" stroke-width="1" rx="2"/></g><g><rect x="272" y="204" width="31" height="31" fill="#e6ca69" rx="4"/><rect x="272" y="204" width="31" height="31" fill="url(#shine)" rx="4"/><rect x="278" y="210" width="19" height="19" fill="none" stroke="#ffffff" stroke-opacity=".18" stroke-width="1" rx="2"/></g><g><rect x="238" y="170" width="31" height="31" fill="#e6ca69" rx="4"/><rect x="238" y="170" width="31" height="31" fill="url(#shine)" rx="4"/><rect x="244" y="176" width="19" height="19" fill="none" stroke="#ffffff" stroke-opacity=".18" stroke-width="1" rx="2"/></g><g><rect x="272" y="170" width="31" height="31" fill="#e6ca69" rx="4"/><rect x="272" y="170" width="31" height="31" fill="url(#shine)" rx="4"/><rect x="278" y="176" width="19" height="19" fill="none" stroke="#ffffff" stroke-opacity=".18" stroke-width="1" rx="2"/></g><g><rect x="34" y="170" width="31" height="31" fill="#df7e9a" rx="4"/><rect x="34" y="170" width="31" height="31" fill="url(#shine)" rx="4"/><rect x="40" y="176" width="19" height="19" fill="none" stroke="#ffffff" stroke-opacity=".18" stroke-width="1" rx="2"/></g><g><rect x="68" y="170" width="31" height="31" fill="#df7e9a" rx="4"/><rect x="68" y="170" width="31" height="31" fill="url(#shine)" rx="4"/><rect x="74" y="176" width="19" height="19" fill="none" stroke="#ffffff" stroke-opacity=".18" stroke-width="1" rx="2"/></g><g><rect x="68" y="136" width="31" height="31" fill="#df7e9a" rx="4"/><rect x="68" y="136" width="31" height="31" fill="url(#shine)" rx="4"/><rect x="74" y="142" width="19" height="19" fill="none" stroke="#ffffff" stroke-opacity=".18" stroke-width="1" rx="2"/></g><g><rect x="102" y="136" width="31" height="31" fill="#df7e9a" rx="4"/><rect x="102" y="136" width="31" height="31" fill="url(#shine)" rx="4"/><rect x="108" y="142" width="19" height="19" fill="none" stroke="#ffffff" stroke-opacity=".18" stroke-width="1" rx="2"/></g><g><rect x="136" y="34" width="31" height="31" fill="#ab86ed" rx="4"/><rect x="136" y="34" width="31" height="31" fill="url(#shine)" rx="4"/><rect x="142" y="40" width="19" height="19" fill="none" stroke="#ffffff" stroke-opacity=".18" stroke-width="1" rx="2"/></g><g><rect x="102" y="68" width="31" height="31" fill="#ab86ed" rx="4"/><rect x="102" y="68" width="31" height="31" fill="url(#shine)" rx="4"/><rect x="108" y="74" width="19" height="19" fill="none" stroke="#ffffff" stroke-opacity=".18" stroke-width="1" rx="2"/></g><g><rect x="136" y="68" width="31" height="31" fill="#ab86ed" rx="4"/><rect x="136" y="68" width="31" height="31" fill="url(#shine)" rx="4"/><rect x="142" y="74" width="19" height="19" fill="none" stroke="#ffffff" stroke-opacity=".18" stroke-width="1" rx="2"/></g><g><rect x="170" y="68" width="31" height="31" fill="#ab86ed" rx="4"/><rect x="170" y="68" width="31" height="31" fill="url(#shine)" rx="4"/><rect x="176" y="74" width="19" height="19" fill="none" stroke="#ffffff" stroke-opacity=".18" stroke-width="1" rx="2"/></g><path d="M150 143V174M143 168 150 176 157 168" fill="none" stroke="#b09ed5" stroke-width="2" opacity=".5"/></g>
<rect width="600" height="400" fill="url(#shade)"/>
</svg>
