<svg xmlns="http://www.w3.org/2000/svg" width="600" height="400" viewBox="0 0 600 400" role="img" aria-label="Tiny Fishing illustration">
<defs>
<radialGradient id="a" cx="55%" cy="30%" r="72%"><stop stop-color="#32c9d4" stop-opacity=".3"/><stop offset="1" stop-color="#080d19" stop-opacity="0"/></radialGradient>
<linearGradient id="shade" x1="0" x2="0" y1="0" y2="1"><stop offset=".53" stop-color="#070a12" stop-opacity="0"/><stop offset="1" stop-color="#070a12" stop-opacity=".94"/></linearGradient>
<linearGradient id="shine" x1="0" x2="1" y1="0" y2="1"><stop stop-color="#fff" stop-opacity=".45"/><stop offset=".45" stop-color="#fff" stop-opacity=".08"/><stop offset="1" stop-color="#000" stop-opacity=".13"/></linearGradient>
<filter id="glow" x="-100%" y="-100%" width="300%" height="300%"><feGaussianBlur stdDeviation="8"/></filter>
</defs>
<rect width="600" height="400" fill="#0b1020"/><rect width="600" height="400" fill="url(#a)"/>
<path d="M0 28Q66 8 134 28T267 28T400 28T533 28T666 28V-1H0Z" fill="#78f0d4" opacity=".18"/><path d="M148 28 37 259 212 259 213 28M327 28 291 251 408 251 382 28" fill="#73d3d1" opacity=".045"/><path d="M299-2V133Q299 146 310 146 323 146 323 131V123L317 130" fill="none" stroke="#dcf3e0" stroke-width="4" stroke-linecap="round" stroke-linejoin="round"/><g transform="translate(250 192) scale(-1.4 1.4)"><path d="M-33 0Q-12-28 19-15L40-31 36-6 45 19 20 12Q-12 29-33 0Z" fill="#ffb66e" /><path d="M-4-17 9-28 14-15M0 16 15 28 15 14" fill="#ffb66e" /><circle cx="-18" cy="-3" r="5" fill="#eafff3" /><circle cx="-19" cy="-3" r="2.4" fill="#123742" /><path d="M3-11Q-4 0 3 10" fill="none" stroke="#102e42" stroke-width="2" opacity=".25"/></g><g transform="translate(421 109) scale(0.8 0.8)"><path d="M-33 0Q-12-28 19-15L40-31 36-6 45 19 20 12Q-12 29-33 0Z" fill="#90dec5" /><path d="M-4-17 9-28 14-15M0 16 15 28 15 14" fill="#90dec5" /><circle cx="-18" cy="-3" r="5" fill="#eafff3" /><circle cx="-19" cy="-3" r="2.4" fill="#123742" /><path d="M3-11Q-4 0 3 10" fill="none" stroke="#102e42" stroke-width="2" opacity=".25"/></g><g transform="translate(138 113) scale(-0.61 0.61)"><path d="M-33 0Q-12-28 19-15L40-31 36-6 45 19 20 12Q-12 29-33 0Z" fill="#6fb7c7" /><path d="M-4-17 9-28 14-15M0 16 15 28 15 14" fill="#6fb7c7" /><circle cx="-18" cy="-3" r="5" fill="#eafff3" /><circle cx="-19" cy="-3" r="2.4" fill="#123742" /><path d="M3-11Q-4 0 3 10" fill="none" stroke="#102e42" stroke-width="2" opacity=".25"/></g><g transform="translate(451 241) scale(0.49 0.49)"><path d="M-33 0Q-12-28 19-15L40-31 36-6 45 19 20 12Q-12 29-33 0Z" fill="#9fc080" /><path d="M-4-17 9-28 14-15M0 16 15 28 15 14" fill="#9fc080" /><circle cx="-18" cy="-3" r="5" fill="#eafff3" /><circle cx="-19" cy="-3" r="2.4" fill="#123742" /><path d="M3-11Q-4 0 3 10" fill="none" stroke="#102e42" stroke-width="2" opacity=".25"/></g><circle cx="195" cy="198" r="5" fill="none" stroke="#a1edeb" stroke-width="2" opacity=".35"/><circle cx="179" cy="174" r="8" fill="none" stroke="#a1edeb" stroke-width="2" opacity=".35"/><circle cx="180" cy="143" r="4" fill="none" stroke="#a1edeb" stroke-width="2" opacity=".35"/><circle cx="351" cy="203" r="9" fill="none" stroke="#a1edeb" stroke-width="2" opacity=".35"/><circle cx="366" cy="175" r="5" fill="none" stroke="#a1edeb" stroke-width="2" opacity=".35"/><circle cx="363" cy="152" r="3" fill="none" stroke="#a1edeb" stroke-width="2" opacity=".35"/><circle cx="469" cy="56" r="6" fill="none" stroke="#a1edeb" stroke-width="2" opacity=".35"/><path d="M62 286Q90 237 64 207M65 272Q39 253 39 228M68 252Q90 225 90 209M526 279Q506 238 526 217M521 259Q547 244 544 223" fill="none" stroke="#368e7b" stroke-width="8" stroke-linecap="round" opacity=".6"/>
<rect width="600" height="400" fill="url(#shade)"/>
</svg>
